<?xml version="1.0" encoding="UTF-8"?>
<!DOCTYPE svg PUBLIC "-//W3C//DTD SVG 1.1//EN" "http://www.w3.org/Graphics/SVG/1.1/DTD/svg11.dtd">
<svg xmlns="http://www.w3.org/2000/svg" version="1.1" width="533px" height="533px" style="shape-rendering:geometricPrecision; text-rendering:geometricPrecision; image-rendering:optimizeQuality; fill-rule:evenodd; clip-rule:evenodd" xmlns:xlink="http://www.w3.org/1999/xlink">
<g><path style="opacity:0.963" fill="#fefffe" d="M 232.5,-0.5 C 254.833,-0.5 277.167,-0.5 299.5,-0.5C 348.689,6.84374 393.022,25.6771 432.5,56C 441.333,64.1667 450.167,72.3333 459,80.5C 459.483,81.448 459.649,82.448 459.5,83.5C 457.099,84.0488 454.765,84.8822 452.5,86C 452.833,86.3333 453.167,86.6667 453.5,87C 450.16,88.0033 447.16,89.5033 444.5,91.5C 438.225,94.7866 432.225,98.4533 426.5,102.5C 422.905,104.101 419.572,106.101 416.5,108.5C 388.822,124.999 360.155,142.832 330.5,162C 331.34,163.666 330.84,163.833 329,162.5C 320.52,167.983 312.02,173.317 303.5,178.5C 218.918,230.948 134.585,283.614 50.5,336.5C 39.3891,342.224 28.7224,348.724 18.5,356C 16.9751,357.009 15.3084,357.509 13.5,357.5C 11.2965,346.994 8.46316,336.327 5,325.5C 4.33333,323.167 4.33333,320.833 5,318.5C 19.693,310.417 33.8597,301.751 47.5,292.5C 73.1454,278.017 98.1454,262.517 122.5,246C 145.2,233.43 167.2,219.93 188.5,205.5C 194.696,202.908 200.363,199.575 205.5,195.5C 213.611,190.941 221.611,186.107 229.5,181C 239.415,169.329 238.748,158.329 227.5,148C 221.582,144.311 215.582,143.811 209.5,146.5C 177.884,163.8 146.884,182.967 116.5,204C 90.838,218.402 66.0046,233.902 42,250.5C 41.6667,250.167 41.3333,249.833 41,249.5C 27.5309,258.813 13.6976,267.48 -0.5,275.5C -0.5,261.5 -0.5,247.5 -0.5,233.5C 9.67427,161.687 43.0076,102.52 99.5,56C 138.958,25.7139 183.291,6.88053 232.5,-0.5 Z"/></g>
<g><path style="opacity:0.102" fill="#fefffe" d="M 444.5,91.5 C 445.833,92.1667 445.833,92.1667 444.5,91.5 Z"/></g>
<g><path style="opacity:0.039" fill="#fefffe" d="M 426.5,102.5 C 427.833,103.167 427.833,103.167 426.5,102.5 Z"/></g>
<g><path style="opacity:0.118" fill="#fefffe" d="M 416.5,108.5 C 417.833,109.167 417.833,109.167 416.5,108.5 Z"/></g>
<g><path style="opacity:0.008" fill="#fefffe" d="M 409.5,113.5 C 410.833,114.167 410.833,114.167 409.5,113.5 Z"/></g>
<g><path style="opacity:0.039" fill="#fefffe" d="M 209.5,146.5 C 210.833,147.167 210.833,147.167 209.5,146.5 Z"/></g>
<g><path style="opacity:0.024" fill="#fefffe" d="M 221.5,146.5 C 222.833,147.167 222.833,147.167 221.5,146.5 Z"/></g>
<g><path style="opacity:0.91" fill="#fefffe" d="M 517.5,189.5 C 510.76,193.008 504.76,196.674 499.5,200.5C 493.497,204.168 487.497,207.835 481.5,211.5C 467.314,219.054 453.981,227.22 441.5,236C 434.067,241.044 426.4,245.544 418.5,249.5C 417.5,249.833 416.833,250.5 416.5,251.5C 414.393,252.3 412.226,252.967 410,253.5C 388.364,248.652 373.03,256.318 364,276.5C 363.395,281.691 361.895,286.525 359.5,291C 324.862,312.898 290.028,334.398 255,355.5C 249.32,357.968 243.82,361.468 238.5,366C 222.478,374.557 208.145,383.057 195.5,391.5C 186.915,396.615 178.581,401.948 170.5,407.5C 164.287,410.364 158.287,413.697 152.5,417.5C 139.941,424.411 127.941,432.078 116.5,440.5C 109.121,444.905 101.788,449.239 94.5,453.5C 91.0604,455.055 87.7271,456.888 84.5,459C 83.1667,459.667 81.8333,459.667 80.5,459C 71.9023,451.074 64.0689,442.574 57,433.5C 56.2195,432.056 56.3861,430.723 57.5,429.5C 74.9838,417.795 92.6504,407.295 110.5,398C 131.081,384.552 151.747,371.385 172.5,358.5C 193.462,346.182 214.129,333.515 234.5,320.5C 251.634,311.353 267.967,301.02 283.5,289.5C 293.76,284.711 303.76,278.711 313.5,271.5C 334.582,258.668 355.248,246.002 375.5,233.5C 388.809,226.179 401.809,218.346 414.5,210C 413.549,209.282 413.383,208.449 414,207.5C 415.049,208.517 416.216,208.684 417.5,208C 424.376,204.068 431.042,199.901 437.5,195.5C 460.758,181.427 483.925,167.094 507,152.5C 509.442,153.876 510.275,155.71 509.5,158C 511.019,159.218 512.186,160.718 513,162.5C 515.318,168.467 517.818,174.3 520.5,180C 520.421,182.305 520.254,184.805 520,187.5C 519.005,188.066 518.172,188.733 517.5,189.5 Z"/></g>
<g><path style="opacity:0.008" fill="#fefffe" d="M 313.5,173.5 C 314.833,174.167 314.833,174.167 313.5,173.5 Z"/></g>
<g><path style="opacity:0.024" fill="#fefffe" d="M 303.5,178.5 C 304.833,179.167 304.833,179.167 303.5,178.5 Z"/></g>
<g><path style="opacity:0.031" fill="#fefffe" d="M 294.5,184.5 C 295.833,185.167 295.833,185.167 294.5,184.5 Z"/></g>
<g><path style="opacity:0.094" fill="#fefffe" d="M 517.5,189.5 C 518.833,190.167 518.833,190.167 517.5,189.5 Z"/></g>
<g><path style="opacity:0.024" fill="#fefffe" d="M 205.5,195.5 C 204.833,194.167 204.833,194.167 205.5,195.5 Z"/></g>
<g><path style="opacity:0.039" fill="#fefffe" d="M 437.5,195.5 C 436.833,194.167 436.833,194.167 437.5,195.5 Z"/></g>
<g><path style="opacity:0.118" fill="#fefffe" d="M 499.5,200.5 C 500.833,201.167 500.833,201.167 499.5,200.5 Z"/></g>
<g><path style="opacity:0.008" fill="#fefffe" d="M 188.5,205.5 C 187.833,204.167 187.833,204.167 188.5,205.5 Z"/></g>
<g><path style="opacity:0.008" fill="#fefffe" d="M 251.5,211.5 C 252.833,212.167 252.833,212.167 251.5,211.5 Z"/></g>
<g><path style="opacity:0.039" fill="#fefffe" d="M 481.5,211.5 C 482.833,212.167 482.833,212.167 481.5,211.5 Z"/></g>
<g><path style="opacity:0.968" fill="#fefffe" d="M 532.5,233.5 C 532.5,255.167 532.5,276.833 532.5,298.5C 522.305,370.359 488.972,429.525 432.5,476C 393.019,506.328 348.686,525.162 299.5,532.5C 277.167,532.5 254.833,532.5 232.5,532.5C 186.435,525.697 144.435,508.697 106.5,481.5C 105.571,480.311 105.238,478.978 105.5,477.5C 111.987,474.841 117.82,471.174 123,466.5C 123.333,466.833 123.667,467.167 124,467.5C 135.153,459.492 146.653,452.159 158.5,445.5C 168.144,440.01 177.811,434.51 187.5,429C 204.239,417.301 221.572,406.634 239.5,397C 251.53,389.951 263.197,382.451 274.5,374.5C 282.968,369.682 291.301,364.682 299.5,359.5C 322.515,345.333 345.682,331.333 369,317.5C 377.189,326.119 387.189,331.119 399,332.5C 401.221,332.607 403.054,331.94 404.5,330.5C 418.365,329.336 428.032,322.002 433.5,308.5C 435.943,303.394 437.277,297.894 437.5,292C 436.716,287.147 436.216,282.314 436,277.5C 439.101,275.368 442.268,273.368 445.5,271.5C 451.367,268.027 457.034,264.36 462.5,260.5C 483.722,248.213 504.722,235.38 525.5,222C 527.025,220.991 528.692,220.491 530.5,220.5C 530.77,225.028 531.437,229.361 532.5,233.5 Z"/></g>
<g><path style="opacity:0.008" fill="#fefffe" d="M 234.5,222.5 C 235.833,223.167 235.833,223.167 234.5,222.5 Z"/></g>
<g><path style="opacity:0.008" fill="#fefffe" d="M 511.5,228.5 C 512.833,229.167 512.833,229.167 511.5,228.5 Z"/></g>
<g><path style="opacity:0.016" fill="#fefffe" d="M 375.5,233.5 C 374.833,232.167 374.833,232.167 375.5,233.5 Z"/></g>
<g><path style="opacity:0.094" fill="#fefffe" d="M 418.5,249.5 C 419.833,250.167 419.833,250.167 418.5,249.5 Z"/></g>
<g><path style="opacity:0.082" fill="#fefffe" d="M 416.5,251.5 C 417.239,251.369 417.906,251.536 418.5,252C 417.563,252.692 416.897,252.525 416.5,251.5 Z"/></g>
<g><path style="opacity:0.012" fill="#fefffe" d="M 333.5,257.5 C 333.897,256.475 334.563,256.308 335.5,257C 334.906,257.464 334.239,257.631 333.5,257.5 Z"/></g>
<g><path style="opacity:0.188" fill="#fefffe" d="M 462.5,260.5 C 461.833,259.167 461.833,259.167 462.5,260.5 Z"/></g>
<g><path style="opacity:0.016" fill="#fefffe" d="M 313.5,271.5 C 312.833,270.167 312.833,270.167 313.5,271.5 Z"/></g>
<g><path style="opacity:0.165" fill="#fefffe" d="M 445.5,271.5 C 444.761,271.631 444.094,271.464 443.5,271C 444.437,270.308 445.103,270.475 445.5,271.5 Z"/></g>
<g><path style="opacity:0.008" fill="#fefffe" d="M 283.5,289.5 C 282.833,288.167 282.833,288.167 283.5,289.5 Z"/></g>
<g><path style="opacity:0.008" fill="#fefffe" d="M 47.5,292.5 C 46.8333,291.167 46.8333,291.167 47.5,292.5 Z"/></g>
<g><path style="opacity:0.016" fill="#fefffe" d="M 433.5,308.5 C 432.475,308.103 432.308,307.437 433,306.5C 433.464,307.094 433.631,307.761 433.5,308.5 Z"/></g>
<g><path style="opacity:0.024" fill="#fefffe" d="M 250.5,308.5 C 251.833,309.167 251.833,309.167 250.5,308.5 Z"/></g>
<g><path style="opacity:0.024" fill="#fefffe" d="M 332.5,308.5 C 333.833,309.167 333.833,309.167 332.5,308.5 Z"/></g>
<g><path style="opacity:0.039" fill="#fefffe" d="M 365.5,317.5 C 365.897,316.475 366.563,316.308 367.5,317C 366.906,317.464 366.239,317.631 365.5,317.5 Z"/></g>
<g><path style="opacity:0.047" fill="#fefffe" d="M 234.5,320.5 C 233.833,319.167 233.833,319.167 234.5,320.5 Z"/></g>
<g><path style="opacity:0.008" fill="#fefffe" d="M 404.5,330.5 C 403.833,329.167 403.833,329.167 404.5,330.5 Z"/></g>
<g><path style="opacity:0.039" fill="#fefffe" d="M 50.5,336.5 C 51.8333,337.167 51.8333,337.167 50.5,336.5 Z"/></g>
<g><path style="opacity:0.016" fill="#fefffe" d="M 188.5,346.5 C 189.833,347.167 189.833,347.167 188.5,346.5 Z"/></g>
<g><path style="opacity:0.016" fill="#fefffe" d="M 316.5,346.5 C 317.833,347.167 317.833,347.167 316.5,346.5 Z"/></g>
<g><path style="opacity:0.024" fill="#fefffe" d="M 264.5,350.5 C 265.833,351.167 265.833,351.167 264.5,350.5 Z"/></g>
<g><path style="opacity:0.047" fill="#fefffe" d="M 172.5,358.5 C 171.833,357.167 171.833,357.167 172.5,358.5 Z"/></g>
<g><path style="opacity:0.063" fill="#fefffe" d="M 299.5,357.5 C 300.833,358.167 300.833,358.167 299.5,357.5 Z"/></g>
<g><path style="opacity:0.18" fill="#fefffe" d="M 299.5,358.5 C 299.5,358.833 299.5,359.167 299.5,359.5C 298.83,359.019 298.83,358.685 299.5,358.5 Z"/></g>
<g><path style="opacity:0.11" fill="#fefffe" d="M 274.5,374.5 C 273.833,373.167 273.833,373.167 274.5,374.5 Z"/></g>
<g><path style="opacity:0.29" fill="#fefffe" d="M 195.5,391.5 C 196.833,392.167 196.833,392.167 195.5,391.5 Z"/></g>
<g><path style="opacity:0.031" fill="#fefffe" d="M 109.5,395.5 C 110.833,396.167 110.833,396.167 109.5,395.5 Z"/></g>
<g><path style="opacity:0.008" fill="#fefffe" d="M 188.5,396.5 C 189.833,397.167 189.833,397.167 188.5,396.5 Z"/></g>
<g><path style="opacity:0.016" fill="#fefffe" d="M 170.5,407.5 C 171.833,408.167 171.833,408.167 170.5,407.5 Z"/></g>
<g><path style="opacity:0.008" fill="#fefffe" d="M 162.5,412.5 C 163.833,413.167 163.833,413.167 162.5,412.5 Z"/></g>
<g><path style="opacity:0.008" fill="#fefffe" d="M 204.5,414.5 C 205.833,415.167 205.833,415.167 204.5,414.5 Z"/></g>
<g><path style="opacity:0.149" fill="#fefffe" d="M 152.5,417.5 C 153.833,418.167 153.833,418.167 152.5,417.5 Z"/></g>
<g><path style="opacity:0.024" fill="#fefffe" d="M 116.5,440.5 C 117.833,441.167 117.833,441.167 116.5,440.5 Z"/></g>
<g><path style="opacity:0.024" fill="#fefffe" d="M 158.5,445.5 C 157.833,444.167 157.833,444.167 158.5,445.5 Z"/></g>
<g><path style="opacity:0.086" fill="#fefffe" d="M 94.5,453.5 C 95.2389,453.369 95.9056,453.536 96.5,454C 95.5632,454.692 94.8966,454.525 94.5,453.5 Z"/></g>
<g><path style="opacity:0.016" fill="#fefffe" d="M 136.5,456.5 C 137.833,457.167 137.833,457.167 136.5,456.5 Z"/></g>
<g><path style="opacity:0.008" fill="#fefffe" d="M 105.5,477.5 C 104.833,476.167 104.833,476.167 105.5,477.5 Z"/></g>
</svg>
